<svg width="498" height="494" viewBox="0 0 498 494" fill="none" xmlns="http://www.w3.org/2000/svg">
<path fill-rule="evenodd" clip-rule="evenodd" d="M250.913 -2.97109C296.961 -4.03399 336.722 24.4039 374.56 50.621C413.239 77.4199 450.54 106.729 470.605 149.246C492.597 195.849 506.984 249.388 491.562 298.549C476.072 347.928 429.034 377.316 388.818 409.965C345.998 444.728 306.073 491.992 250.913 493.92C195.259 495.866 142.108 462.012 105.805 419.86C73.4526 382.295 84.033 326.669 66.8453 280.197C48.5336 230.687 -12.368 190.569 2.24109 139.847C16.7713 89.3984 85.7697 82.4132 131.351 56.2348C170.88 33.5325 205.32 -1.91872 250.913 -2.97109Z" fill="#00B6F0"/>
</svg>
